<svg width="1311" height="1311" viewBox="0 0 1311 1311" fill="none" xmlns="http://www.w3.org/2000/svg">
<path d="M607.688 2.24772L655.5 0.500333L703.312 2.24772L750.869 7.48041L797.917 16.1706L844.205 28.2719L889.486 43.7197L933.519 62.4317L976.068 84.3079L1016.91 109.232L1016.92 109.241L1055.8 137.058L1055.83 137.081L1092.58 167.662L1092.61 167.686L1127.02 200.868L1127.05 200.894L1158.95 236.5L1158.98 236.528L1188.19 274.367L1188.22 274.397L1214.59 314.268L1214.61 314.299L1238.01 355.99L1238.03 356.022L1258.32 399.309L1258.33 399.343L1275.41 443.996L1275.42 444.031L1289.2 489.811L1289.21 489.846L1299.6 536.51L1299.61 536.546L1306.57 583.844L1306.57 583.88L1310.06 631.56V631.578V679.422V679.44L1306.57 727.12L1306.57 727.156L1299.61 774.454L1299.6 774.49L1289.21 821.154L1289.2 821.189L1275.42 866.969L1275.41 867.004L1258.33 911.657L1258.32 911.691L1238.03 954.978L1238.01 955.01L1214.61 996.701L1214.59 996.732L1188.22 1036.6L1188.19 1036.63L1158.98 1074.47L1158.95 1074.5L1127.05 1110.11L1127.02 1110.13L1092.61 1143.31L1092.58 1143.34L1055.83 1173.92L1055.8 1173.94L1016.92 1201.76L1016.89 1201.78L976.085 1226.68L976.053 1226.7L933.536 1248.56L933.503 1248.58L889.503 1267.27L889.469 1267.29L844.222 1282.72L844.188 1282.73L797.935 1294.83L797.899 1294.83L750.887 1303.52L750.851 1303.52L703.33 1308.75L703.294 1308.75L655.518 1310.5H655.482L607.706 1308.75L607.67 1308.75L560.149 1303.52L560.113 1303.52L513.101 1294.83L513.065 1294.83L466.812 1282.73L466.778 1282.72L421.531 1267.29L421.497 1267.27L377.497 1248.58L377.464 1248.56L334.947 1226.7L334.915 1226.68L294.107 1201.78L294.077 1201.76L255.195 1173.94L255.167 1173.92L218.42 1143.34L218.392 1143.31L183.976 1110.13L183.95 1110.11L152.048 1074.5L152.024 1074.47L122.806 1036.63L122.784 1036.6L96.4058 996.732L96.3968 996.716L72.9812 954.994L52.6735 911.673L35.5823 866.987L21.7985 821.171L11.3958 774.472L4.4297 727.138L0.937317 679.422V631.578L4.4297 583.862L11.3958 536.528L21.7985 489.829L35.5822 444.013L52.6736 399.327L72.9811 356.007L96.3969 314.284L122.795 274.383L152.036 236.514L183.964 200.882L218.406 167.675L255.181 137.07L294.092 109.232L334.932 84.3079L377.481 62.4318L421.514 43.7197L466.795 28.2719L513.083 16.1706L560.131 7.48041L607.688 2.24772Z" stroke="white"/>
</svg>
