<svg width="1285" height="1283" viewBox="0 0 1285 1283" fill="yellow" xmlns="http://www.w3.org/2000/svg">
<path d="M674.535 11.893L687.822 21.5466C703.49 32.9309 723.961 35.3235 741.832 27.8596L756.987 21.5303C778.775 12.4311 803.944 18.3962 819.33 36.3057L830.032 48.7634C842.653 63.4542 862.02 70.5031 881.131 67.3619L897.338 64.6982C920.636 60.8688 943.751 72.4774 954.592 93.4525L962.133 108.042C971.026 125.248 988.245 136.573 1007.57 137.924L1023.95 139.069C1047.5 140.716 1067.32 157.343 1073.03 180.252L1077 196.188C1081.69 214.981 1095.83 229.972 1114.32 235.742L1130 240.635C1152.54 247.669 1167.98 268.417 1168.26 292.026L1168.45 308.449C1168.67 327.815 1178.98 345.664 1195.64 355.542L1209.76 363.919C1230.07 375.961 1240.32 399.712 1235.14 422.748L1231.54 438.772C1227.29 457.668 1233.2 477.412 1247.13 490.866L1258.95 502.275C1275.93 518.676 1280.42 544.149 1270.07 565.371L1262.87 580.132C1254.38 597.54 1255.58 618.114 1266.04 634.418L1274.9 648.244C1287.65 668.121 1286.14 693.943 1271.18 712.205L1260.77 724.908C1248.49 739.889 1244.91 760.185 1251.32 778.461L1256.76 793.958C1264.58 816.238 1257.16 841.017 1238.39 855.336L1225.33 865.296C1209.93 877.041 1201.76 895.965 1203.79 915.227L1205.51 931.561C1207.97 955.042 1195.04 977.443 1173.47 987.046L1158.47 993.726C1140.77 1001.6 1128.47 1018.14 1125.99 1037.34L1123.9 1053.63C1120.88 1077.05 1103.13 1095.87 1079.93 1100.24L1063.79 1103.28C1044.76 1106.86 1028.97 1120.11 1022.13 1138.23L1016.34 1153.6C1008.01 1175.69 986.395 1189.9 962.809 1188.8L946.403 1188.04C927.057 1187.14 908.639 1196.39 897.809 1212.44L888.625 1226.06C875.422 1245.63 851.116 1254.48 828.42 1247.97L812.632 1243.45C794.015 1238.11 773.961 1242.86 759.719 1255.99L747.643 1267.12C730.282 1283.12 704.591 1286.12 684.007 1274.56L669.689 1266.51C652.805 1257.02 632.195 1257.02 615.311 1266.51L600.993 1274.56C580.409 1286.12 554.718 1283.12 537.357 1267.12L525.281 1255.99C511.039 1242.86 490.985 1238.11 472.368 1243.45L456.58 1247.97C433.884 1254.48 409.578 1245.63 396.375 1226.06L387.191 1212.44C376.361 1196.39 357.944 1187.14 338.597 1188.04L322.191 1188.8C298.605 1189.9 276.995 1175.69 268.662 1153.6L262.865 1138.23C256.03 1120.11 240.242 1106.86 221.209 1103.28L205.069 1100.24C181.866 1095.87 164.116 1077.05 161.102 1053.63L159.006 1037.34C156.534 1018.14 144.227 1001.6 126.533 993.726L111.53 987.046C89.9597 977.443 77.0267 955.042 79.495 931.561L81.2118 915.227C83.2365 895.965 75.0735 877.041 59.6736 865.296L46.6147 855.336C27.8409 841.017 20.4225 816.238 28.2394 793.958L33.6768 778.461C40.0889 760.185 36.5101 739.889 24.2341 724.908L13.8242 712.205C-1.14141 693.943 -2.6454 668.121 10.0989 648.244L18.9637 634.418C29.4176 618.114 30.6159 597.54 22.1255 580.132L14.9257 565.371C4.57511 544.149 9.06667 518.676 26.0512 502.275L37.8655 490.866C51.7977 477.412 57.7086 457.668 53.4614 438.772L49.86 422.748C44.6824 399.712 54.9273 375.961 75.2365 363.919L89.3634 355.542C106.023 345.664 116.327 327.815 116.553 308.449L116.744 292.026C117.018 268.417 132.464 247.669 155.003 240.635L170.681 235.742C189.169 229.972 203.312 214.981 207.998 196.188L211.971 180.252C217.683 157.343 237.497 140.716 261.051 139.069L277.434 137.924C296.755 136.573 313.974 125.248 322.867 108.042L330.408 93.4525C341.249 72.4774 364.364 60.8688 387.662 64.6982L403.869 67.3619C422.98 70.5031 442.347 63.4542 454.968 48.7633L465.67 36.3057C481.056 18.3962 506.225 12.4311 528.013 21.5303L543.168 27.8596C561.039 35.3235 581.51 32.9309 597.178 21.5466L610.465 11.893C629.567 -1.98546 655.433 -1.98547 674.535 11.893Z"/>
</svg>