<svg width="1309" height="1311" viewBox="0 0 1309 1311" fill="none" xmlns="http://www.w3.org/2000/svg">
<path d="M578.459 4.92971L654.5 0.500846L730.541 4.92971L805.553 18.1564L878.523 40.0021L948.463 70.1714L1014.43 108.256L1075.53 153.741L1130.93 206.012L1179.89 264.362L1221.75 328.001L1255.93 396.068L1281.98 467.644L1299.55 541.761L1308.39 617.415V693.585L1299.55 769.239L1281.98 843.356L1255.93 914.932L1221.75 982.999L1179.89 1046.64L1130.93 1104.99L1075.53 1157.26L1014.43 1202.74L948.463 1240.83L878.523 1271L805.553 1292.84L730.54 1306.07L654.5 1310.5L578.46 1306.07L503.447 1292.84L430.477 1271L360.537 1240.83L294.572 1202.74L233.475 1157.26L178.071 1104.99L129.11 1046.64L87.2541 983L53.0692 914.932L27.0177 843.356L9.45174 769.239L0.609009 693.585V617.415L9.45174 541.761L27.0177 467.644L53.0692 396.068L87.2541 328L129.11 264.362L178.071 206.012L233.475 153.742L294.572 108.256L360.537 70.1714L430.477 40.0022L503.447 18.1564L578.459 4.92971Z" stroke="white"/>
</svg>
