<svg width="1408" height="1408" viewBox="0 0 1408 1408" fill="none" xmlns="http://www.w3.org/2000/svg">
<path d="M734.535 71.893L747.822 81.5466C763.49 92.9309 783.961 95.3235 801.832 87.8596L816.987 81.5303C838.775 72.4311 863.944 78.3962 879.33 96.3057L890.032 108.763C902.653 123.454 922.02 130.503 941.131 127.362L957.338 124.698C980.636 120.869 1003.75 132.477 1014.59 153.452L1022.13 168.042C1031.03 185.248 1048.24 196.573 1067.57 197.924L1083.95 199.069C1107.5 200.716 1127.32 217.343 1133.03 240.252L1137 256.188C1141.69 274.981 1155.83 289.972 1174.32 295.742L1190 300.635C1212.54 307.669 1227.98 328.417 1228.26 352.026L1228.45 368.449C1228.67 387.815 1238.98 405.664 1255.64 415.542L1269.76 423.919C1290.07 435.961 1300.32 459.712 1295.14 482.748L1291.54 498.772C1287.29 517.668 1293.2 537.412 1307.13 550.866L1318.95 562.275C1335.93 578.676 1340.42 604.149 1330.07 625.371L1322.87 640.132C1314.38 657.54 1315.58 678.114 1326.04 694.418L1334.9 708.244C1347.65 728.121 1346.14 753.943 1331.18 772.205L1320.77 784.908C1308.49 799.889 1304.91 820.185 1311.32 838.461L1316.76 853.958C1324.58 876.238 1317.16 901.017 1298.39 915.336L1285.33 925.296C1269.93 937.041 1261.76 955.965 1263.79 975.227L1265.51 991.561C1267.97 1015.04 1255.04 1037.44 1233.47 1047.05L1218.47 1053.73C1200.77 1061.6 1188.47 1078.14 1185.99 1097.34L1183.9 1113.63C1180.88 1137.05 1163.13 1155.87 1139.93 1160.24L1123.79 1163.28C1104.76 1166.86 1088.97 1180.11 1082.13 1198.23L1076.34 1213.6C1068.01 1235.69 1046.39 1249.9 1022.81 1248.8L1006.4 1248.04C987.057 1247.14 968.639 1256.39 957.809 1272.44L948.625 1286.06C935.422 1305.63 911.116 1314.48 888.42 1307.97L872.632 1303.45C854.015 1298.11 833.961 1302.86 819.719 1315.99L807.643 1327.12C790.282 1343.12 764.591 1346.12 744.007 1334.56L729.689 1326.51C712.805 1317.02 692.195 1317.02 675.311 1326.51L660.993 1334.56C640.409 1346.12 614.718 1343.12 597.357 1327.12L585.281 1315.99C571.039 1302.86 550.985 1298.11 532.368 1303.45L516.58 1307.97C493.884 1314.48 469.578 1305.63 456.375 1286.06L447.191 1272.44C436.361 1256.39 417.944 1247.14 398.597 1248.04L382.191 1248.8C358.605 1249.9 336.995 1235.69 328.662 1213.6L322.865 1198.23C316.03 1180.11 300.242 1166.86 281.209 1163.28L265.069 1160.24C241.866 1155.87 224.116 1137.05 221.102 1113.63L219.006 1097.34C216.534 1078.14 204.227 1061.6 186.533 1053.73L171.53 1047.05C149.96 1037.44 137.027 1015.04 139.495 991.561L141.212 975.227C143.236 955.965 135.073 937.041 119.674 925.296L106.615 915.336C87.8409 901.017 80.4225 876.238 88.2394 853.958L93.6768 838.461C100.089 820.185 96.5101 799.889 84.2341 784.908L73.8242 772.205C58.8586 753.943 57.3546 728.121 70.0989 708.244L78.9637 694.418C89.4176 678.114 90.6159 657.54 82.1255 640.132L74.9257 625.371C64.5751 604.149 69.0667 578.676 86.0512 562.275L97.8655 550.866C111.798 537.412 117.709 517.668 113.461 498.772L109.86 482.748C104.682 459.712 114.927 435.961 135.237 423.919L149.363 415.542C166.023 405.664 176.327 387.815 176.553 368.449L176.744 352.026C177.018 328.417 192.464 307.669 215.003 300.635L230.681 295.742C249.169 289.972 263.312 274.981 267.998 256.188L271.971 240.252C277.683 217.343 297.497 200.716 321.051 199.069L337.434 197.924C356.755 196.573 373.974 185.248 382.867 168.042L390.408 153.452C401.249 132.477 424.364 120.869 447.662 124.698L463.869 127.362C482.98 130.503 502.347 123.454 514.968 108.763L525.67 96.3057C541.056 78.3962 566.225 72.4311 588.013 81.5303L603.168 87.8596C621.039 95.3235 641.51 92.9309 657.178 81.5466L670.465 71.893C689.567 58.0145 715.433 58.0145 734.535 71.893Z" stroke="white"/>
<path d="M702.513 74.4998L735.354 75.3598L735.38 75.3612L768.131 77.9387L768.157 77.9415L800.728 82.2295L800.754 82.2336L833.056 88.2204L833.081 88.2259L865.026 95.895L865.051 95.9018L896.55 105.232L896.575 105.24L927.543 116.207L927.567 116.216L957.919 128.788L957.943 128.799L987.594 142.942L987.618 142.954L1016.49 158.629L1016.51 158.642L1044.52 175.808L1044.54 175.822L1071.62 194.429L1071.64 194.445L1097.7 214.444L1097.72 214.46L1122.7 235.796L1122.72 235.814L1146.55 258.428L1146.57 258.446L1169.19 282.276L1169.2 282.296L1190.54 307.277L1190.56 307.297L1210.56 333.36L1210.57 333.381L1229.18 360.456L1229.19 360.478L1246.36 388.489L1246.37 388.511L1262.05 417.382L1262.06 417.406L1276.2 447.057L1276.21 447.081L1288.78 477.433L1288.79 477.457L1299.76 508.425L1299.77 508.45L1309.1 539.949L1309.11 539.974L1316.77 571.919L1316.78 571.944L1322.77 604.246L1322.77 604.272L1327.06 636.843L1327.06 636.869L1329.64 669.62L1329.64 669.646L1330.5 702.487V702.513L1329.64 735.354L1329.64 735.38L1327.06 768.131L1327.06 768.157L1322.77 800.728L1322.77 800.754L1316.78 833.056L1316.77 833.081L1309.11 865.026L1309.1 865.051L1299.77 896.55L1299.76 896.575L1288.79 927.543L1288.78 927.567L1276.21 957.919L1276.2 957.943L1262.06 987.594L1262.05 987.618L1246.37 1016.49L1246.36 1016.51L1229.19 1044.52L1229.18 1044.54L1210.57 1071.62L1210.56 1071.64L1190.56 1097.7L1190.54 1097.72L1169.2 1122.7L1169.19 1122.72L1146.57 1146.55L1146.55 1146.57L1122.72 1169.19L1122.7 1169.2L1097.72 1190.54L1097.7 1190.56L1071.64 1210.56L1071.62 1210.57L1044.54 1229.18L1044.52 1229.19L1016.51 1246.36L1016.49 1246.37L987.618 1262.05L987.594 1262.06L957.943 1276.2L957.919 1276.21L927.567 1288.78L927.543 1288.79L896.575 1299.76L896.55 1299.77L865.051 1309.1L865.026 1309.11L833.081 1316.77L833.056 1316.78L800.754 1322.77L800.728 1322.77L768.157 1327.06L768.131 1327.06L735.38 1329.64L735.354 1329.64L702.513 1330.5H702.487L669.646 1329.64L669.62 1329.64L636.869 1327.06L636.843 1327.06L604.272 1322.77L604.246 1322.77L571.944 1316.78L571.919 1316.77L539.974 1309.11L539.949 1309.1L508.45 1299.77L508.425 1299.76L477.457 1288.79L477.433 1288.78L447.081 1276.21L447.057 1276.2L417.406 1262.06L417.382 1262.05L388.511 1246.37L388.489 1246.36L360.478 1229.19L360.456 1229.18L333.381 1210.57L333.36 1210.56L307.297 1190.56L307.277 1190.54L282.296 1169.2L282.276 1169.19L258.446 1146.57L258.428 1146.55L235.814 1122.72L235.796 1122.7L214.46 1097.72L214.444 1097.7L194.445 1071.64L194.429 1071.62L175.822 1044.54L175.808 1044.52L158.642 1016.51L158.629 1016.49L142.954 987.618L142.942 987.594L128.799 957.943L128.788 957.919L116.216 927.567L116.207 927.543L105.24 896.575L105.232 896.55L95.9018 865.051L95.895 865.026L88.2259 833.081L88.2204 833.056L82.2336 800.754L82.2295 800.728L77.9415 768.157L77.9387 768.131L75.3612 735.38L75.3598 735.354L74.4998 702.513V702.487L75.3598 669.646L75.3612 669.62L77.9387 636.869L77.9415 636.843L82.2295 604.272L82.2336 604.246L88.2204 571.944L88.2235 571.932L95.8987 539.962L105.237 508.437L116.212 477.445L128.794 447.069L142.948 417.394L158.636 388.5L175.815 360.467L194.437 333.371L214.453 307.287L235.805 282.286L258.437 258.437L282.286 235.805L307.287 214.453L333.371 194.437L360.467 175.815L388.5 158.636L417.394 142.948L447.069 128.794L477.445 116.212L508.437 105.237L539.962 95.8987L571.932 88.2235L571.944 88.2204L604.246 82.2336L604.272 82.2295L636.843 77.9415L636.869 77.9387L669.62 75.3612L669.646 75.3598L702.487 74.4998H702.513Z" stroke="white"/>
<path d="M595.978 87.149C615.457 111.304 653.471 106.86 666.854 78.8648C681.778 47.645 726.222 47.645 741.146 78.8648C754.529 106.86 792.543 111.304 812.022 87.149C833.743 60.2124 876.989 70.4618 884.311 104.282C890.876 134.609 926.842 147.699 951.366 128.688C978.714 107.487 1018.43 127.433 1017.75 162.03C1017.15 193.054 1049.13 214.085 1077.37 201.242C1108.87 186.919 1142.92 215.487 1134.28 248.995C1126.54 279.044 1152.81 306.883 1183.25 300.9C1217.21 294.227 1243.75 329.876 1227.62 360.491C1213.15 387.943 1232.29 421.089 1263.3 422.289C1297.87 423.627 1315.48 464.435 1292.72 490.504C1272.32 513.881 1283.29 550.547 1313.19 558.865C1346.52 568.141 1354.24 611.909 1326.09 632.028C1300.84 650.069 1303.07 688.277 1330.24 703.265C1360.54 719.98 1357.95 764.348 1325.92 777.431C1297.19 789.164 1290.55 826.856 1313.53 847.706C1339.15 870.957 1326.41 913.533 1292.22 918.876C1261.56 923.667 1246.4 958.811 1263.96 984.398C1283.53 1012.93 1261.31 1051.42 1226.81 1048.74C1195.87 1046.33 1173.02 1077.03 1184.2 1105.97C1196.66 1138.25 1166.17 1170.58 1133.22 1160.01C1103.67 1150.54 1074.35 1175.14 1078.55 1205.88C1083.24 1240.17 1046.11 1264.59 1016.48 1246.7C989.918 1230.67 955.715 1247.85 952.714 1278.73C949.368 1313.17 907.605 1328.37 882.903 1304.14C860.753 1282.41 823.511 1291.24 813.468 1320.6C802.27 1353.34 758.127 1358.5 739.679 1329.22C723.137 1302.97 684.863 1302.97 668.321 1329.22C649.873 1358.5 605.73 1353.34 594.532 1320.6C584.489 1291.24 547.247 1282.41 525.097 1304.14C500.395 1328.37 458.632 1313.17 455.286 1278.73C452.285 1247.85 418.082 1230.67 391.517 1246.7C361.893 1264.59 324.761 1240.17 329.448 1205.88C333.65 1175.14 304.331 1150.54 274.784 1160.01C241.834 1170.58 211.335 1138.25 223.802 1105.97C234.982 1077.03 212.126 1046.33 181.19 1048.74C146.691 1051.42 124.469 1012.93 144.044 984.398C161.598 958.811 146.438 923.667 115.781 918.876C81.592 913.533 68.8455 870.957 94.4735 847.706C117.455 826.856 110.809 789.164 82.0822 777.431C50.0475 764.348 47.4633 719.98 77.7626 703.265C104.933 688.278 107.158 650.069 81.9117 632.028C53.7577 611.909 61.4752 568.141 94.8123 558.865C124.706 550.547 135.683 513.881 115.278 490.504C92.5227 464.435 110.126 423.627 144.703 422.289C175.71 421.089 194.847 387.943 180.383 360.491C164.253 329.876 190.792 294.227 224.746 300.9C255.194 306.883 281.459 279.044 273.716 248.995C265.08 215.487 299.126 186.919 330.626 201.242C358.873 214.085 390.85 193.054 390.245 162.03C389.57 127.433 429.286 107.487 456.634 128.688C481.158 147.699 517.124 134.609 523.689 104.282C531.011 70.4618 574.257 60.2124 595.978 87.149Z" stroke="white"/>
</svg>
