<?xml version="1.0" encoding="UTF-8"?>
<svg id="Logos_05._Current" data-name="Logos 05. Current" xmlns="http://www.w3.org/2000/svg" xmlns:xlink="http://www.w3.org/1999/xlink" viewBox="0 0 401.99 269.2">
  <defs>
    <style>
      .cls-1 {
        fill: none;
        stroke: url(#linear-gradient);
        stroke-linecap: round;
        stroke-miterlimit: 10;
        stroke-width: 6px;
      }
    </style>
    <linearGradient id="linear-gradient" x1="10.11" y1="131.76" x2="397.47" y2="131.53" gradientUnits="userSpaceOnUse">
      <stop offset=".03" stop-color="#e5e5e5"/>
      <stop offset=".5" stop-color="#e5e5e5"/>
      <stop offset=".51" stop-color="#b03034"/>
      <stop offset=".53" stop-color="#b03034"/>
      <stop offset=".61" stop-color="#d1b762"/>
      <stop offset=".7" stop-color="#d1b762"/>
      <stop offset=".75" stop-color="#4e929b"/>
      <stop offset=".85" stop-color="#4e929b"/>
      <stop offset=".9" stop-color="#9f83a3"/>
    </linearGradient>
  </defs>
  <g id="Insta_Profile" data-name="Insta Profile">
    <path class="cls-1" d="M394.55,253.35c-19.37-.02-11.31-74.87-30.69-74.89h0c-19.44-.02-13.45,74.95-32.88,74.95-19.44,0-7.8-73.55-27.24-73.54h0c-19.37,.02-15.07,73.59-34.44,73.6-19.37,.02-10.13-74.33-29.5-74.31-19.37,.02-15.63,74.29-35,74.31-9.12,0-19.17-103.11-22.66-151.55-3.93-54.49-7.44-72.1,3.61-74.25,7.83-1.53,12.73,20.75,8.41,80.01-3.73,51.22-16.96,145.72-25.94,145.73-19.37,.02-19.4-72.97-38.78-72.95-19.37,.02-19.34,73-38.71,73.02-19.37,.02-19.08-243.64-38.45-243.62-19.37-.02-19.72,243.64-39.09,243.62"/>
  </g>
</svg>